<mxfile host="app.diagrams.net" modified="2021-12-21T07:12:56.429Z" agent="5.0 (Macintosh; Intel Mac OS X 10_15_7) AppleWebKit/537.36 (KHTML, like Gecko) Chrome/96.0.4664.55 Safari/537.36" etag="DiXX9tohm63ZSxnK2HkX" version="15.9.6" type="github">
  <diagram id="wK-yXuyg6ko_bYqxtgu8" name="Page-1">
    <mxGraphModel dx="1333" dy="708" grid="1" gridSize="10" guides="1" tooltips="1" connect="1" arrows="1" fold="1" page="1" pageScale="1" pageWidth="827" pageHeight="1169" math="0" shadow="0">
      <root>
        <mxCell id="0" />
        <mxCell id="1" parent="0" />
        <mxCell id="b12nW1j8Qad7O9ZehorL-2" value="Member Account" style="points=[[0,0],[0.25,0],[0.5,0],[0.75,0],[1,0],[1,0.25],[1,0.5],[1,0.75],[1,1],[0.75,1],[0.5,1],[0.25,1],[0,1],[0,0.75],[0,0.5],[0,0.25]];outlineConnect=0;gradientColor=none;html=1;whiteSpace=wrap;fontSize=12;fontStyle=0;container=1;pointerEvents=0;collapsible=0;recursiveResize=0;shape=mxgraph.aws4.group;grIcon=mxgraph.aws4.group_aws_cloud_alt;strokeColor=#232F3E;fillColor=none;verticalAlign=top;align=left;spacingLeft=30;fontColor=#232F3E;dashed=0;" vertex="1" parent="1">
          <mxGeometry x="160" y="190" width="600" height="450" as="geometry" />
        </mxCell>
        <mxCell id="b12nW1j8Qad7O9ZehorL-19" value="" style="rounded=0;whiteSpace=wrap;html=1;dashed=1;fillColor=none;strokeWidth=2;" vertex="1" parent="b12nW1j8Qad7O9ZehorL-2">
          <mxGeometry x="420" y="170" width="160" height="120" as="geometry" />
        </mxCell>
        <mxCell id="b12nW1j8Qad7O9ZehorL-18" value="" style="rounded=0;whiteSpace=wrap;html=1;dashed=1;fillColor=none;strokeWidth=2;" vertex="1" parent="b12nW1j8Qad7O9ZehorL-2">
          <mxGeometry x="20" y="170" width="160" height="120" as="geometry" />
        </mxCell>
        <mxCell id="b12nW1j8Qad7O9ZehorL-12" value="Check Service TLS" style="sketch=0;outlineConnect=0;fontColor=#232F3E;gradientColor=none;fillColor=#B0084D;strokeColor=none;dashed=0;verticalLabelPosition=bottom;verticalAlign=top;align=center;html=1;fontSize=12;fontStyle=0;aspect=fixed;pointerEvents=1;shape=mxgraph.aws4.rule_2;" vertex="1" parent="b12nW1j8Qad7O9ZehorL-2">
          <mxGeometry x="280" y="50" width="40" height="40" as="geometry" />
        </mxCell>
        <mxCell id="b12nW1j8Qad7O9ZehorL-4" value="Lambda" style="sketch=0;outlineConnect=0;fontColor=#232F3E;gradientColor=none;fillColor=#D45B07;strokeColor=none;dashed=0;verticalLabelPosition=bottom;verticalAlign=top;align=center;html=1;fontSize=12;fontStyle=0;aspect=fixed;pointerEvents=1;shape=mxgraph.aws4.lambda_function;" vertex="1" parent="b12nW1j8Qad7O9ZehorL-2">
          <mxGeometry x="120" y="210" width="40" height="40" as="geometry" />
        </mxCell>
        <mxCell id="b12nW1j8Qad7O9ZehorL-35" style="edgeStyle=orthogonalEdgeStyle;rounded=0;orthogonalLoop=1;jettySize=auto;html=1;startArrow=none;startFill=0;endArrow=open;endFill=0;strokeWidth=2;dashed=1;strokeColor=#CC0066;" edge="1" parent="b12nW1j8Qad7O9ZehorL-2" source="b12nW1j8Qad7O9ZehorL-5" target="b12nW1j8Qad7O9ZehorL-4">
          <mxGeometry relative="1" as="geometry" />
        </mxCell>
        <mxCell id="b12nW1j8Qad7O9ZehorL-5" value="" style="sketch=0;outlineConnect=0;fontColor=#232F3E;gradientColor=none;fillColor=#BF0816;strokeColor=none;dashed=0;verticalLabelPosition=bottom;verticalAlign=top;align=center;html=1;fontSize=12;fontStyle=0;aspect=fixed;pointerEvents=1;shape=mxgraph.aws4.role;" vertex="1" parent="b12nW1j8Qad7O9ZehorL-2">
          <mxGeometry x="40" y="210" width="40" height="40" as="geometry" />
        </mxCell>
        <mxCell id="b12nW1j8Qad7O9ZehorL-6" value="Automation" style="sketch=0;outlineConnect=0;fontColor=#232F3E;gradientColor=none;fillColor=#B0084D;strokeColor=none;dashed=0;verticalLabelPosition=bottom;verticalAlign=top;align=center;html=1;fontSize=12;fontStyle=0;aspect=fixed;pointerEvents=1;shape=mxgraph.aws4.automation;" vertex="1" parent="b12nW1j8Qad7O9ZehorL-2">
          <mxGeometry x="440" y="210" width="40" height="40" as="geometry" />
        </mxCell>
        <mxCell id="b12nW1j8Qad7O9ZehorL-36" style="edgeStyle=orthogonalEdgeStyle;rounded=0;orthogonalLoop=1;jettySize=auto;html=1;dashed=1;startArrow=none;startFill=0;endArrow=open;endFill=0;strokeColor=#CC0066;strokeWidth=2;" edge="1" parent="b12nW1j8Qad7O9ZehorL-2" source="b12nW1j8Qad7O9ZehorL-15" target="b12nW1j8Qad7O9ZehorL-6">
          <mxGeometry relative="1" as="geometry" />
        </mxCell>
        <mxCell id="b12nW1j8Qad7O9ZehorL-15" value="" style="sketch=0;outlineConnect=0;fontColor=#232F3E;gradientColor=none;fillColor=#BF0816;strokeColor=none;dashed=0;verticalLabelPosition=bottom;verticalAlign=top;align=center;html=1;fontSize=12;fontStyle=0;aspect=fixed;pointerEvents=1;shape=mxgraph.aws4.role;" vertex="1" parent="b12nW1j8Qad7O9ZehorL-2">
          <mxGeometry x="520" y="210" width="40" height="40" as="geometry" />
        </mxCell>
        <mxCell id="b12nW1j8Qad7O9ZehorL-17" value="" style="group" vertex="1" connectable="0" parent="b12nW1j8Qad7O9ZehorL-2">
          <mxGeometry x="180" y="330" width="240" height="85" as="geometry" />
        </mxCell>
        <mxCell id="b12nW1j8Qad7O9ZehorL-13" value="" style="fillColor=#EFF0F3;strokeColor=none;dashed=0;verticalAlign=top;fontStyle=0;fontColor=#232F3D;" vertex="1" parent="b12nW1j8Qad7O9ZehorL-17">
          <mxGeometry width="240" height="85" as="geometry" />
        </mxCell>
        <mxCell id="b12nW1j8Qad7O9ZehorL-8" value="NLB" style="sketch=0;outlineConnect=0;fontColor=#232F3E;gradientColor=none;fillColor=#4D27AA;strokeColor=none;dashed=0;verticalLabelPosition=bottom;verticalAlign=top;align=center;html=1;fontSize=12;fontStyle=0;aspect=fixed;pointerEvents=1;shape=mxgraph.aws4.network_load_balancer;" vertex="1" parent="b12nW1j8Qad7O9ZehorL-17">
          <mxGeometry x="100.00454545454545" y="20.00333333333333" width="40" height="40" as="geometry" />
        </mxCell>
        <mxCell id="b12nW1j8Qad7O9ZehorL-9" value="ApiGW" style="sketch=0;points=[[0,0,0],[0.25,0,0],[0.5,0,0],[0.75,0,0],[1,0,0],[0,1,0],[0.25,1,0],[0.5,1,0],[0.75,1,0],[1,1,0],[0,0.25,0],[0,0.5,0],[0,0.75,0],[1,0.25,0],[1,0.5,0],[1,0.75,0]];outlineConnect=0;fontColor=#232F3E;gradientColor=#FF4F8B;gradientDirection=north;fillColor=#BC1356;strokeColor=#ffffff;dashed=0;verticalLabelPosition=bottom;verticalAlign=top;align=center;html=1;fontSize=12;fontStyle=0;aspect=fixed;shape=mxgraph.aws4.resourceIcon;resIcon=mxgraph.aws4.api_gateway;" vertex="1" parent="b12nW1j8Qad7O9ZehorL-17">
          <mxGeometry x="179.99636363636358" y="20.00333333333333" width="40" height="40" as="geometry" />
        </mxCell>
        <mxCell id="b12nW1j8Qad7O9ZehorL-10" value="ALB" style="outlineConnect=0;dashed=0;verticalLabelPosition=bottom;verticalAlign=top;align=center;html=1;shape=mxgraph.aws3.application_load_balancer;fillColor=#F58536;gradientColor=none;" vertex="1" parent="b12nW1j8Qad7O9ZehorL-17">
          <mxGeometry x="20.00272727272727" y="20.00333333333333" width="40" height="40" as="geometry" />
        </mxCell>
        <mxCell id="b12nW1j8Qad7O9ZehorL-23" value="" style="endArrow=classic;html=1;rounded=0;startArrow=open;startFill=0;endFill=1;edgeStyle=orthogonalEdgeStyle;strokeWidth=2;" edge="1" parent="b12nW1j8Qad7O9ZehorL-2">
          <mxGeometry width="50" height="50" relative="1" as="geometry">
            <mxPoint x="242" y="70" as="sourcePoint" />
            <mxPoint x="100" y="162" as="targetPoint" />
          </mxGeometry>
        </mxCell>
        <mxCell id="b12nW1j8Qad7O9ZehorL-25" value="" style="endArrow=none;html=1;rounded=0;startArrow=open;startFill=0;endFill=0;edgeStyle=orthogonalEdgeStyle;strokeWidth=2;" edge="1" parent="b12nW1j8Qad7O9ZehorL-2">
          <mxGeometry width="50" height="50" relative="1" as="geometry">
            <mxPoint x="160" y="370" as="sourcePoint" />
            <mxPoint x="100" y="309" as="targetPoint" />
            <Array as="points">
              <mxPoint x="160" y="370" />
              <mxPoint x="100" y="370" />
            </Array>
          </mxGeometry>
        </mxCell>
        <mxCell id="b12nW1j8Qad7O9ZehorL-26" value="" style="endArrow=none;html=1;rounded=0;startArrow=open;startFill=0;endFill=0;edgeStyle=orthogonalEdgeStyle;strokeWidth=2;" edge="1" parent="b12nW1j8Qad7O9ZehorL-2">
          <mxGeometry width="50" height="50" relative="1" as="geometry">
            <mxPoint x="498" y="159" as="sourcePoint" />
            <mxPoint x="360" y="70" as="targetPoint" />
            <Array as="points">
              <mxPoint x="498.03" y="70" />
            </Array>
          </mxGeometry>
        </mxCell>
        <mxCell id="b12nW1j8Qad7O9ZehorL-29" value="Check Resource&amp;nbsp;" style="text;html=1;strokeColor=none;fillColor=none;align=center;verticalAlign=middle;whiteSpace=wrap;rounded=0;dashed=1;" vertex="1" parent="b12nW1j8Qad7O9ZehorL-2">
          <mxGeometry x="40" y="180" width="120" height="20" as="geometry" />
        </mxCell>
        <mxCell id="b12nW1j8Qad7O9ZehorL-30" value="Remediation" style="text;html=1;strokeColor=none;fillColor=none;align=center;verticalAlign=middle;whiteSpace=wrap;rounded=0;dashed=1;" vertex="1" parent="b12nW1j8Qad7O9ZehorL-2">
          <mxGeometry x="440" y="180" width="120" height="20" as="geometry" />
        </mxCell>
        <mxCell id="b12nW1j8Qad7O9ZehorL-31" value="1" style="ellipse;whiteSpace=wrap;html=1;aspect=fixed;strokeWidth=2;fillColor=default;strokeColor=#3333FF;" vertex="1" parent="b12nW1j8Qad7O9ZehorL-2">
          <mxGeometry x="50" y="90" width="30" height="30" as="geometry" />
        </mxCell>
        <mxCell id="b12nW1j8Qad7O9ZehorL-33" value="3" style="ellipse;whiteSpace=wrap;html=1;aspect=fixed;strokeWidth=2;fillColor=default;strokeColor=#3333FF;" vertex="1" parent="b12nW1j8Qad7O9ZehorL-2">
          <mxGeometry x="200" y="90" width="30" height="30" as="geometry" />
        </mxCell>
        <mxCell id="b12nW1j8Qad7O9ZehorL-32" value="4" style="ellipse;whiteSpace=wrap;html=1;aspect=fixed;strokeWidth=2;fillColor=default;strokeColor=#3333FF;" vertex="1" parent="b12nW1j8Qad7O9ZehorL-2">
          <mxGeometry x="520" y="90" width="30" height="30" as="geometry" />
        </mxCell>
        <mxCell id="b12nW1j8Qad7O9ZehorL-34" value="5" style="ellipse;whiteSpace=wrap;html=1;aspect=fixed;strokeWidth=2;fillColor=default;strokeColor=#3333FF;" vertex="1" parent="b12nW1j8Qad7O9ZehorL-2">
          <mxGeometry x="520" y="340" width="30" height="30" as="geometry" />
        </mxCell>
        <mxCell id="b12nW1j8Qad7O9ZehorL-37" value="2" style="ellipse;whiteSpace=wrap;html=1;aspect=fixed;strokeWidth=2;fillColor=default;strokeColor=#3333FF;" vertex="1" parent="b12nW1j8Qad7O9ZehorL-2">
          <mxGeometry x="50" y="340" width="30" height="30" as="geometry" />
        </mxCell>
        <mxCell id="b12nW1j8Qad7O9ZehorL-39" value="Frequency: 1h" style="text;html=1;strokeColor=none;fillColor=none;align=center;verticalAlign=middle;whiteSpace=wrap;rounded=0;fontSize=14;" vertex="1" parent="b12nW1j8Qad7O9ZehorL-2">
          <mxGeometry x="110" y="30" width="110" height="30" as="geometry" />
        </mxCell>
        <mxCell id="b12nW1j8Qad7O9ZehorL-27" value="" style="endArrow=none;html=1;rounded=0;startArrow=open;startFill=0;endFill=0;edgeStyle=orthogonalEdgeStyle;strokeWidth=2;" edge="1" parent="1">
          <mxGeometry width="50" height="50" relative="1" as="geometry">
            <mxPoint x="601" y="557" as="sourcePoint" />
            <mxPoint x="659" y="500" as="targetPoint" />
            <Array as="points">
              <mxPoint x="659" y="557" />
            </Array>
          </mxGeometry>
        </mxCell>
      </root>
    </mxGraphModel>
  </diagram>
</mxfile>
